<?xml version="1.0" encoding="UTF-8"?>
<svg width="117px" height="24px" viewBox="0 0 117 24" version="1.1" xmlns="http://www.w3.org/2000/svg" xmlns:xlink="http://www.w3.org/1999/xlink">
    <!-- Generator: Sketch 58 (84663) - https://sketch.com -->
    <title>Group</title>
    <desc>Created with Sketch.</desc>
    <g id="Desarrollo" stroke="none" stroke-width="1" fill="none" fill-rule="evenodd">
        <g id="Desarrolladores/logs" transform="translate(-40.000000, -40.000000)">
            <g id="Group" transform="translate(40.000000, 40.000000)">
                <g id="molecules/brand/logotype" transform="translate(29.250000, 2.086957)" fill="#FFFFFF">
                    <g id="atoms/brand/type">
                        <g id="Mask">
                            <path d="M19.6156164,4.95404197 C23.4671388,4.95404197 26.1523605,7.80832659 26.1523605,11.4878634 C26.1523605,15.166634 23.4421142,17.9994636 19.6156164,17.9994636 C15.7610607,17.9994636 13.0530893,15.166634 13.0530893,11.4878634 C13.0530893,7.78533907 15.7830521,4.95404197 19.6156164,4.95404197 Z M6.39872933,4.95419522 C9.38652188,4.95419522 11.7904057,6.55565961 12.5851282,9.66663829 L12.5847491,9.67027798 L12.5820949,9.67276829 L9.43808784,10.4727342 C9.43505455,10.4735005 9.43277958,10.471968 9.43202126,10.4696692 C9.0574097,9.05670257 7.9388833,8.2337491 6.4935197,8.2337491 C4.62425355,8.2337491 3.45567783,9.64901452 3.45567783,11.4880167 C3.45567783,13.3047976 4.64776156,14.7223618 6.4935197,14.7223618 C7.9388833,14.7223618 9.03617666,13.9223958 9.41078821,12.5538717 L9.4128736,12.5511898 L9.41609647,12.5508067 L12.5820949,13.3293176 C12.5843699,13.3300839 12.5858865,13.3323826 12.5858865,13.3354476 C11.8131554,16.4203738 9.38652188,17.9996169 6.39872933,17.9996169 C2.52445721,17.9996169 1.27897692e-13,15.0733047 1.27897692e-13,11.4880167 C1.27897692e-13,7.8559874 2.52445721,4.95419522 6.39872933,4.95419522 Z M78.4713381,4.9538121 C79.9451611,4.9538121 81.0246771,5.4968162 81.7478194,6.26724319 L81.8792415,6.41428632 L82.136313,6.41428632 L82.136313,5.26414371 L82.1378297,5.26136606 L82.1416213,5.26031246 L85.5426999,5.26031246 L85.5461123,5.26136606 L85.5472498,5.26414371 L85.5472498,14.2936444 C85.5472498,14.5497425 85.7299963,14.7622494 85.9708621,14.8063114 L86.0636678,14.814695 L87.9223174,14.814695 L87.9257298,14.8162275 L87.9268673,14.8200587 L87.9268673,17.6889021 L87.9257298,17.6920629 L87.9223174,17.6934996 L83.5134276,17.6934996 C82.7675946,17.6934996 82.2286553,17.1504955 82.1678314,16.4956965 L82.162096,16.3717168 L81.9035079,16.3717168 C81.2505918,17.3142054 80.2700802,18 78.4956044,18 C75.3432558,18 72.8218318,15.1916904 72.8218318,11.464646 C72.8218318,7.71308161 75.3197477,4.9538121 78.4713381,4.9538121 Z M45.248374,4.95427185 C49.0308891,4.95427185 51.3885152,7.78556894 51.3885152,11.4651058 L51.3885152,11.4651058 L51.3885152,12.3370993 L42.4767035,12.3370993 C42.4744286,12.3370993 42.4713953,12.3401643 42.4721536,12.3424631 C42.4971783,13.9684475 43.686987,14.9553787 45.2953901,14.9553787 C46.4154331,14.9553787 47.4869435,14.5071219 47.9563454,13.4734494 C47.9578621,13.4711507 47.9593787,13.4703844 47.9616537,13.4703844 L47.9616537,13.4703844 L50.9873624,14.1784002 C50.9903957,14.1784002 50.9919123,14.1822315 50.991154,14.1845302 C50.1023995,16.9637223 47.7220236,17.9996935 45.3431644,17.9996935 C41.5833991,17.9996935 38.9679431,15.2396577 38.9679431,11.4880933 C38.9679431,7.59553872 41.8162042,4.95427185 45.248374,4.95427185 Z M33.8302291,4.95396535 C36.3474153,4.95396535 38.0480746,6.79826698 38.1459359,9.1304901 L38.1503951,9.34381678 L38.1503951,17.6890554 L38.1492576,17.6922162 L38.1458452,17.6936529 L34.7470415,17.6936529 L34.7439135,17.6922162 L34.7424916,17.6890554 L34.7424916,10.4518156 C34.7424916,9.06873271 33.7172389,8.09099655 32.3264746,8.31167681 C31.3673956,8.46412041 30.6846402,9.32903727 30.615428,10.2998623 L30.6096314,10.4625431 L30.6096314,17.6890554 L30.6082095,17.6922162 L30.6050814,17.6936529 L27.2055195,17.6936529 L27.2023914,17.6922162 L27.2009696,17.6890554 L27.2009696,5.26429696 L27.2023914,5.26113618 L27.2055195,5.25969946 L30.6050814,5.25969946 L30.6082095,5.26113618 L30.6096314,5.26429696 L30.6096314,6.3922183 L30.8439532,6.3922183 C31.4028372,5.5914861 32.4091318,4.95396535 33.8302291,4.95396535 Z M52.4436458,8.52651283e-14 L55.8481369,0.00143672045 L55.8481369,0.00143672045 L55.8492743,0.00459750543 L55.8492743,9.43637989 L56.8737687,9.43637989 L56.8775603,9.43408114 L59.5362407,5.26261121 L59.5378521,5.26088715 L65.789372,5.26031246 L65.7921209,5.25877996 L65.7931636,5.2549487 L65.7931636,1.86811971 L65.7946803,1.86428845 L65.7984719,1.86275595 L68.9644703,1.86275595 L68.9678828,1.86428845 L68.9690203,1.86811971 L68.9690203,5.2549487 L68.9705369,5.25877996 L68.9743285,5.26031246 L72.2336007,5.26031246 L72.2363496,5.2616534 L72.2373923,5.26414371 L72.2373923,8.2984973 L72.2363496,8.30232855 L72.2336007,8.30386105 L68.9743285,8.30386105 L68.9705369,8.30529777 L68.9690203,8.30845856 L68.9690203,13.8239326 C68.9690203,14.3232924 69.1480024,14.5641037 69.6169049,14.5981968 L69.7402347,14.6024435 L72.0925526,14.6024435 L72.0959651,14.603976 L72.0971026,14.6078072 L72.0971026,17.6889021 L72.0959651,17.6920629 L72.0925526,17.6934996 L69.4133975,17.6934996 C67.0132364,17.6934996 65.6455866,16.6278578 65.5649027,14.0906404 L65.5611168,13.8484526 L65.5611168,8.30845856 L65.5599793,8.30529777 L65.5565668,8.30386105 L61.516222,8.30386105 L61.513947,8.30433996 L61.5116721,8.30539355 L59.8183368,10.804904 L59.8183368,11.0646631 L63.7578247,17.6858371 L63.7575404,17.6911051 L63.7532748,17.6934996 L59.7030717,17.6934996 L59.7008916,17.6929249 L59.6992801,17.6912009 L56.9450511,12.6002299 L56.9420178,12.5971649 L55.8545826,12.5971649 L55.850791,12.5986974 L55.8492743,12.6025286 L55.8492743,17.6889021 L55.8481369,17.6920629 L55.8447244,17.6934996 L52.4436458,17.6934996 L52.4398542,17.6920629 L52.4383376,17.6889021 L52.4383376,0.00459750543 L52.4398542,0.00143672045 L52.4436458,8.52651283e-14 L55.8447244,8.52651283e-14 Z M19.6156164,8.23359585 C17.8964982,8.23359585 16.6573985,9.46955855 16.5216587,11.1729343 C16.3586192,13.2012005 18.1156536,14.9796688 20.1085264,14.686961 C21.6585385,14.4593844 22.6959244,13.1590567 22.6959244,11.4878634 C22.6959244,9.62510749 21.4348333,8.23359585 19.6156164,8.23359585 Z M79.2198028,8.28087353 C77.5841002,8.28087353 76.278268,9.5298625 76.278268,11.4883998 C76.278268,13.4469371 77.6083665,14.6966924 79.2433109,14.6966924 C81.0170283,14.6966924 82.1833291,13.2346856 82.1833291,11.4883998 C82.1833291,9.43637989 80.8304809,8.28087353 79.2198028,8.28087353 Z M45.248374,7.80855647 C43.6642373,7.80855647 42.6624927,8.93724405 42.4956616,10.0437104 C42.4949033,10.0467754 42.4971783,10.0498404 42.5002116,10.0498404 L42.5002116,10.0498404 L47.9525538,10.0498404 C47.9555871,10.0498404 47.9578621,10.0467754 47.9571037,10.0437104 C47.7917893,8.79548763 46.692221,7.80855647 45.248374,7.80855647 Z"></path>
                        </g>
                    </g>
                </g>
                <g id="atoms/brand/symbol">
                    <path d="M20.7062756,15.4615061 C20.7062756,15.4615061 20.795743,13.7072347 19.5416424,13.7072347 C18.2914316,13.7072347 17.2979536,16.1386627 13.7106967,18.9415369 C10.5528837,21.4038527 9.08717295,22.1412011 6.51673338,23.1953479 C6.51284349,23.1969319 6.51206551,23.2016838 6.5159554,23.2040598 C6.61864851,23.2618755 7.75371852,23.8036009 14.0234439,23.8036009 C18.4159081,23.8036009 20.7062756,23.9279442 20.7062756,15.4615061" id="Mask" fill="#FFFFFF"></path>
                    <path d="M11.6136568,5.86092946 C11.6136568,5.85934547 11.6128788,5.85696948 11.6113228,5.85538549 C9.27194274,4.35930487 7.8007862,3.60770059 5.98265143,2.96063978 C4.69276377,2.66205726 3.81131461,3.24338238 3.39509634,3.62037252 C1.31244902,5.74450603 0.0210054081,8.66934759 0,11.9022756 C0.0210054081,15.1352037 1.31244902,18.0600452 3.39509634,20.1825947 C3.81131461,20.5611689 4.69276377,21.140118 5.98265143,20.8439115 C7.8007862,20.1976427 9.27194274,19.4452464 11.6113228,17.9483738 C11.6128788,17.9467898 11.6136568,17.9444138 11.6136568,17.9428298 C11.0558465,15.7893924 10.861352,13.7191147 10.8527942,11.9022756 C10.861352,10.0854366 11.0558465,8.01515882 11.6136568,5.86092946" id="Mask" fill="#00A1AF"></path>
                    <path d="M20.7076503,8.34051082 C20.7076503,8.34051082 20.7971178,10.0955742 19.5430171,10.0955742 C18.2928063,10.0955742 17.2993283,7.66414616 13.7120714,4.86364798 C10.5542584,2.40054015 9.08854769,1.66239979 6.51810812,0.607461 C6.51421823,0.605877008 6.51344025,0.601125032 6.51733014,0.59954104 C6.62002324,0.540933329 7.75509326,0 14.0248186,0 C18.4172828,0 20.7076503,0.0839515855 20.7076503,8.34051082" id="Mask" fill="#E40595"></path>
                </g>
            </g>
        </g>
    </g>
</svg>